<svg width="396" height="73" viewBox="0 0 396 73" fill="none" xmlns="http://www.w3.org/2000/svg">
<path d="M40.2155 3.16336H46.5099V57.5918L7.26222 16.4187V55H0.967773V0.571533L40.2155 41.7446V3.16336Z" fill="#F3F4F9"/>
<path d="M55.0549 37.9679C55.0549 34.5122 55.8201 31.4513 57.3505 28.7855C58.9303 26.1196 61.0531 24.0214 63.719 22.491C66.3849 20.9606 69.3717 20.1954 72.6793 20.1954C76.0364 20.1954 79.0231 20.9606 81.6397 22.491C84.3055 24.0214 86.4037 26.1196 87.9341 28.7855C89.5139 31.4513 90.3038 34.5122 90.3038 37.9679C90.3038 41.3744 89.5139 44.4352 87.9341 47.1504C86.4037 49.8163 84.3055 51.9145 81.6397 53.4449C79.0231 54.9753 76.0364 55.7405 72.6793 55.7405C69.3717 55.7405 66.3849 54.9753 63.719 53.4449C61.0531 51.9145 58.9303 49.8163 57.3505 47.1504C55.8201 44.4352 55.0549 41.3744 55.0549 37.9679ZM61.0531 37.9679C61.0531 40.3376 61.5468 42.4358 62.5342 44.2624C63.5709 46.089 64.9532 47.5454 66.6811 48.6315C68.4583 49.6682 70.4578 50.1866 72.6793 50.1866C74.9009 50.1866 76.8756 49.6682 78.6035 48.6315C80.3808 47.5454 81.7631 46.089 82.7504 44.2624C83.7872 42.4358 84.3055 40.3376 84.3055 37.9679C84.3055 35.5983 83.7872 33.5001 82.7504 31.6735C81.7631 29.7975 80.3808 28.3411 78.6035 27.3044C76.8756 26.2677 74.9009 25.7493 72.6793 25.7493C70.4578 25.7493 68.4583 26.2677 66.6811 27.3044C64.9532 28.3411 63.5709 29.7975 62.5342 31.6735C61.5468 33.5001 61.0531 35.5983 61.0531 37.9679Z" fill="#F3F4F9"/>
<path d="M91.8033 20.9359H98.468L108.095 45.0029L117.722 20.9359H124.386L108.095 57.5918L91.8033 20.9359Z" fill="#F3F4F9"/>
<path d="M132.638 44.4846C132.638 45.7681 132.934 46.8789 133.527 47.8169C134.168 48.7549 135.032 49.4707 136.118 49.9644C137.254 50.4087 138.537 50.6309 139.969 50.6309C141.796 50.6309 143.425 50.2606 144.857 49.5201C146.338 48.7796 147.498 47.7429 148.337 46.4099C149.226 45.0276 149.67 43.4478 149.67 41.6706L150.855 46.1137C150.855 48.2859 150.188 50.0878 148.855 51.5195C147.572 52.9512 145.967 54.0126 144.042 54.7038C142.166 55.3949 140.29 55.7405 138.414 55.7405C136.341 55.7405 134.391 55.3209 132.564 54.4816C130.787 53.593 129.355 52.3341 128.269 50.7049C127.183 49.0758 126.64 47.1011 126.64 44.7808C126.64 41.4731 127.8 38.8319 130.12 36.8572C132.49 34.8331 135.773 33.821 139.969 33.821C142.438 33.821 144.486 34.1172 146.115 34.7096C147.794 35.2527 149.127 35.8945 150.114 36.635C151.102 37.3262 151.768 37.8939 152.114 38.3382V41.8187C150.386 40.6338 148.609 39.7946 146.782 39.3009C144.955 38.7578 143.005 38.4863 140.932 38.4863C139.006 38.4863 137.427 38.7332 136.192 39.2268C135.008 39.7205 134.119 40.4117 133.527 41.3003C132.934 42.1889 132.638 43.2503 132.638 44.4846ZM131.749 28.7855L128.861 24.4164C130.145 23.4784 131.897 22.5404 134.119 21.6024C136.39 20.6644 139.105 20.1954 142.265 20.1954C144.931 20.1954 147.251 20.615 149.226 21.4543C151.25 22.2442 152.805 23.4043 153.891 24.9347C155.026 26.4652 155.594 28.3411 155.594 30.5627V55H149.67V31.3773C149.67 30.1925 149.473 29.2298 149.078 28.4893C148.683 27.6994 148.115 27.0823 147.374 26.6379C146.683 26.1936 145.869 25.8727 144.931 25.6753C143.993 25.4778 143.005 25.3791 141.969 25.3791C140.29 25.3791 138.76 25.5765 137.377 25.9715C136.044 26.3664 134.909 26.8354 133.971 27.3785C133.033 27.9215 132.292 28.3905 131.749 28.7855Z" fill="#F3F4F9"/>
<path d="M188.196 3.16336H194.49V55H188.196V3.16336ZM203.747 55H191.676V48.7055H203.747C206.659 48.7055 209.325 48.2612 211.744 47.3726C214.163 46.4346 216.237 45.1263 217.965 43.4478C219.693 41.7199 221.026 39.6465 221.964 37.2274C222.902 34.8084 223.371 32.0931 223.371 29.0817C223.371 26.0702 222.902 23.355 221.964 20.9359C221.026 18.5169 219.693 16.4681 217.965 14.7896C216.237 13.0617 214.163 11.7534 211.744 10.8648C209.325 9.92681 206.659 9.45781 203.747 9.45781H191.676V3.16336H203.747C208.782 3.16336 213.25 4.24946 217.15 6.42167C221.05 8.59386 224.111 11.63 226.333 15.5301C228.554 19.3808 229.665 23.898 229.665 29.0817C229.665 34.2653 228.554 38.8072 226.333 42.7073C224.111 46.558 221.05 49.5695 217.15 51.7417C213.25 53.9139 208.782 55 203.747 55Z" fill="#F3F4F9"/>
<path d="M251.339 55.7405C248.18 55.7405 245.366 55 242.897 53.5189C240.478 51.9885 238.578 49.8904 237.195 47.2245C235.862 44.5586 235.196 41.4731 235.196 37.9679C235.196 34.4134 235.887 31.3032 237.269 28.6374C238.701 25.9715 240.676 23.898 243.193 22.417C245.761 20.9359 248.723 20.1954 252.08 20.1954C255.437 20.1954 258.3 20.9112 260.67 22.3429C263.089 23.7252 264.94 25.7246 266.224 28.3411C267.507 30.9577 268.149 34.0679 268.149 37.6717C268.149 38.0173 268.124 38.3876 268.075 38.7825C268.075 39.1281 268.075 39.3503 268.075 39.449H238.972V34.4134H263.41L261.04 37.8198C261.188 37.573 261.336 37.2027 261.484 36.7091C261.632 36.166 261.706 35.7217 261.706 35.3761C261.706 33.352 261.287 31.5994 260.448 30.1184C259.658 28.6374 258.547 27.4772 257.115 26.6379C255.684 25.7987 254.005 25.3791 252.08 25.3791C249.809 25.3791 247.859 25.8727 246.23 26.8601C244.65 27.7981 243.416 29.1804 242.527 31.007C241.688 32.7843 241.243 34.9812 241.194 37.5977C241.194 40.2636 241.614 42.5345 242.453 44.4105C243.292 46.2865 244.526 47.7182 246.156 48.7055C247.785 49.6929 249.759 50.1866 252.08 50.1866C254.4 50.1866 256.449 49.6929 258.226 48.7055C260.003 47.6688 261.509 46.1137 262.743 44.0402L267.557 47.0764C265.779 49.9397 263.533 52.1119 260.818 53.593C258.152 55.0247 254.992 55.7405 251.339 55.7405Z" fill="#F3F4F9"/>
<path d="M277.676 44.5586C278.367 45.5953 279.157 46.558 280.045 47.4466C280.934 48.3353 281.946 49.0511 283.082 49.5942C284.266 50.0878 285.55 50.3347 286.932 50.3347C288.611 50.3347 289.919 49.9644 290.857 49.2239C291.844 48.434 292.338 47.3726 292.338 46.0396C292.338 44.8548 291.943 43.8674 291.153 43.0776C290.413 42.2383 289.45 41.5471 288.265 41.0041C287.08 40.4117 285.822 39.8686 284.489 39.3749C283.008 38.7825 281.502 38.0914 279.971 37.3015C278.49 36.4622 277.231 35.4008 276.195 34.1172C275.207 32.7843 274.714 31.1304 274.714 29.1557C274.714 27.1316 275.232 25.4531 276.269 24.1202C277.355 22.7872 278.737 21.7999 280.416 21.1581C282.144 20.5163 283.921 20.1954 285.747 20.1954C287.574 20.1954 289.277 20.4916 290.857 21.084C292.486 21.6764 293.918 22.4663 295.152 23.4537C296.386 24.4411 297.349 25.5765 298.04 26.8601L293.301 29.8962C292.363 28.6127 291.178 27.5513 289.746 26.712C288.364 25.8727 286.784 25.4531 285.007 25.4531C283.773 25.4531 282.711 25.7246 281.823 26.2677C280.934 26.8107 280.49 27.65 280.49 28.7855C280.49 29.6741 280.835 30.464 281.526 31.1551C282.218 31.8463 283.106 32.4634 284.192 33.0064C285.278 33.5495 286.414 34.0679 287.599 34.5615C289.573 35.3514 291.375 36.2154 293.005 37.1534C294.634 38.042 295.917 39.1281 296.855 40.4117C297.843 41.6952 298.336 43.3491 298.336 45.3732C298.336 48.3353 297.25 50.8037 295.078 52.7784C292.955 54.7531 290.141 55.7405 286.636 55.7405C284.365 55.7405 282.316 55.3456 280.49 54.5557C278.663 53.7164 277.108 52.655 275.824 51.3714C274.59 50.0878 273.652 48.7796 273.01 47.4466L277.676 44.5586Z" fill="#F3F4F9"/>
<path d="M306.136 6.86598C306.136 5.73051 306.531 4.76783 307.32 3.97794C308.16 3.18805 309.122 2.7931 310.208 2.7931C311.344 2.7931 312.307 3.18805 313.096 3.97794C313.886 4.76783 314.281 5.73051 314.281 6.86598C314.281 7.95208 313.886 8.91476 313.096 9.75402C312.307 10.5439 311.344 10.9389 310.208 10.9389C309.122 10.9389 308.16 10.5439 307.32 9.75402C306.531 8.91476 306.136 7.95208 306.136 6.86598ZM307.246 20.9359H313.171V55H307.246V20.9359Z" fill="#F3F4F9"/>
<path d="M323.076 57.2215H329.074C329.074 58.8507 329.519 60.3564 330.407 61.7387C331.296 63.1704 332.555 64.3059 334.184 65.1451C335.813 66.0338 337.739 66.4781 339.96 66.4781C341.688 66.4781 343.391 66.0585 345.07 65.2192C346.748 64.3799 348.131 63.047 349.217 61.2204C350.352 59.4431 350.92 57.1228 350.92 54.2595V20.9359H356.844V54.2595C356.844 58.1595 356.029 61.4178 354.4 64.0344C352.771 66.7002 350.673 68.6997 348.106 70.0326C345.539 71.3655 342.823 72.032 339.96 72.032C336.652 72.032 333.715 71.4149 331.148 70.1807C328.63 68.9465 326.655 67.1939 325.224 64.923C323.792 62.7014 323.076 60.1343 323.076 57.2215ZM322.41 37.9679C322.41 34.2653 323.175 31.1058 324.705 28.4893C326.236 25.8234 328.285 23.7746 330.852 22.3429C333.419 20.9112 336.233 20.1954 339.294 20.1954C342.157 20.1954 344.65 20.9112 346.773 22.3429C348.896 23.7746 350.55 25.8234 351.734 28.4893C352.969 31.1058 353.586 34.2653 353.586 37.9679C353.586 41.6212 352.969 44.7808 351.734 47.4466C350.55 50.1125 348.896 52.1613 346.773 53.593C344.65 55.0247 342.157 55.7405 339.294 55.7405C336.233 55.7405 333.419 55.0247 330.852 53.593C328.285 52.1613 326.236 50.1125 324.705 47.4466C323.175 44.7808 322.41 41.6212 322.41 37.9679ZM328.408 37.9679C328.408 40.5845 328.926 42.806 329.963 44.6327C331.049 46.4593 332.481 47.8416 334.258 48.7796C336.035 49.7176 337.961 50.1866 340.034 50.1866C341.762 50.1866 343.465 49.7176 345.144 48.7796C346.822 47.8416 348.205 46.4593 349.291 44.6327C350.377 42.806 350.92 40.5845 350.92 37.9679C350.92 35.9932 350.599 34.2653 349.957 32.7843C349.315 31.2539 348.451 29.9703 347.365 28.9336C346.329 27.8968 345.168 27.1069 343.885 26.5639C342.601 26.0208 341.318 25.7493 340.034 25.7493C337.961 25.7493 336.035 26.2183 334.258 27.1563C332.481 28.0943 331.049 29.4766 329.963 31.3032C328.926 33.1299 328.408 35.3514 328.408 37.9679Z" fill="#F3F4F9"/>
<path d="M389.45 34.2653C389.45 31.4513 388.833 29.3285 387.599 27.8968C386.365 26.4652 384.563 25.7493 382.193 25.7493C380.465 25.7493 378.935 26.1196 377.602 26.8601C376.318 27.5513 375.306 28.5386 374.566 29.8222C373.875 31.1058 373.529 32.5868 373.529 34.2653V55H367.605V20.9359H373.529V26.2677C374.664 24.1942 376.071 22.6638 377.75 21.6764C379.478 20.6891 381.453 20.1954 383.674 20.1954C387.278 20.1954 390.117 21.4049 392.19 23.824C394.313 26.1936 395.374 29.4272 395.374 33.5248V55H389.45V34.2653Z" fill="#F3F4F9"/>
</svg>
